STARTFONT 2.1
FONT -Monotype-Nimrod-Bold-R-Normal--14-140-75-75-P-87-iso8859-5
SIZE 14 75 75
FONTBOUNDINGBOX 18 19 0 -3

STARTPROPERTIES 24
FOUNDRY "Monotype"
FAMILY_NAME "Nimrod"
WEIGHT_NAME "Bold"
SLANT "R"
SETWIDTH_NAME "Normal"
ADD_STYLE_NAME ""
PIXEL_SIZE 14
POINT_SIZE 140
RESOLUTION_X 75
RESOLUTION_Y 75
SPACING "P"
AVERAGE_WIDTH 87
CHARSET_REGISTRY "iso8859"
CHARSET_ENCODING "5"
FACE_NAME "Nimrod Bold ISO Latin Cyrillic"
_DEC_DEVICE_FONTNAMES "PS=nimrod-b-latcyrillic"
COPYRIGHT "Copyright (c) 1994 Monotype Typography Ltd."
CAP_HEIGHT 14
X_HEIGHT 10
WEIGHT 10
QUAD_WIDTH 11
DEFAULT_CHAR 160
FONT_DESCENT 4
FONT_ASCENT 16
ENDPROPERTIES

CHARS 191

STARTCHAR space
ENCODING 32
SWIDTH 250 0
DWIDTH 4 0
BBX 0 0 0 0
BITMAP
ENDCHAR

STARTCHAR exclam
ENCODING 33
SWIDTH 323 0
DWIDTH 5 0
BBX 2 12 2 0
BITMAP
C0
C0
C0
C0
C0
C0
80
80
00
00
C0
C0
ENDCHAR

STARTCHAR quotedbl
ENCODING 34
SWIDTH 552 0
DWIDTH 8 0
BBX 6 5 1 7
BITMAP
CC
CC
CC
44
44
ENDCHAR

STARTCHAR numbersign
ENCODING 35
SWIDTH 667 0
DWIDTH 10 0
BBX 9 12 1 0
BITMAP
1100
1100
1100
7F80
3300
2200
2200
2200
FF00
6600
4400
4400
ENDCHAR

STARTCHAR dollar
ENCODING 36
SWIDTH 542 0
DWIDTH 8 0
BBX 7 14 1 -2
BITMAP
10
7C
D2
D6
D4
F0
7C
1E
56
D6
96
7C
10
10
ENDCHAR

STARTCHAR percent
ENCODING 37
SWIDTH 1000 0
DWIDTH 15 0
BBX 12 12 2 0
BITMAP
7080
D880
D900
D900
DA00
7200
04E0
05B0
09B0
09B0
11B0
10E0
ENDCHAR

STARTCHAR ampersand
ENCODING 38
SWIDTH 865 0
DWIDTH 13 0
BBX 11 12 1 0
BITMAP
0E00
1B00
3300
3200
3400
1800
29E0
4CC0
C680
C320
E3A0
7CC0
ENDCHAR

STARTCHAR quoteright
ENCODING 39
SWIDTH 323 0
DWIDTH 5 0
BBX 3 4 1 8
BITMAP
60
60
40
80
ENDCHAR

STARTCHAR parenleft
ENCODING 40
SWIDTH 385 0
DWIDTH 6 0
BBX 5 15 1 -3
BITMAP
18
30
60
60
C0
C0
C0
C0
C0
C0
C0
60
60
30
18
ENDCHAR

STARTCHAR parenright
ENCODING 41
SWIDTH 385 0
DWIDTH 6 0
BBX 5 15 0 -3
BITMAP
C0
60
30
30
18
18
18
18
18
18
18
30
30
60
C0
ENDCHAR

STARTCHAR asterisk
ENCODING 42
SWIDTH 552 0
DWIDTH 8 0
BBX 8 7 0 5
BITMAP
18
18
CB
FF
18
7E
66
ENDCHAR

STARTCHAR plus
ENCODING 43
SWIDTH 667 0
DWIDTH 10 0
BBX 7 7 2 1
BITMAP
10
10
10
FE
10
10
10
ENDCHAR

STARTCHAR comma
ENCODING 44
SWIDTH 323 0
DWIDTH 5 0
BBX 3 4 1 -2
BITMAP
60
60
40
80
ENDCHAR

STARTCHAR minus
ENCODING 45
SWIDTH 667 0
DWIDTH 10 0
BBX 8 1 1 4
BITMAP
FF
ENDCHAR

STARTCHAR period
ENCODING 46
SWIDTH 323 0
DWIDTH 5 0
BBX 2 2 2 0
BITMAP
C0
C0
ENDCHAR

STARTCHAR slash
ENCODING 47
SWIDTH 552 0
DWIDTH 8 0
BBX 8 12 0 0
BITMAP
03
02
06
04
0C
08
18
10
30
20
60
C0
ENDCHAR

STARTCHAR zero
ENCODING 48
SWIDTH 594 0
DWIDTH 9 0
BBX 7 12 1 0
BITMAP
38
6C
C6
C6
C6
C6
C6
C6
C6
C6
6C
38
ENDCHAR

STARTCHAR one
ENCODING 49
SWIDTH 594 0
DWIDTH 9 0
BBX 4 12 3 0
BITMAP
20
E0
60
60
60
60
60
60
60
60
60
F0
ENDCHAR

STARTCHAR two
ENCODING 50
SWIDTH 594 0
DWIDTH 9 0
BBX 7 12 1 0
BITMAP
3C
4E
86
C6
66
0C
0C
18
32
42
FE
FC
ENDCHAR

STARTCHAR three
ENCODING 51
SWIDTH 594 0
DWIDTH 9 0
BBX 7 12 1 0
BITMAP
78
8C
C6
46
0C
38
0C
06
46
C6
8C
78
ENDCHAR

STARTCHAR four
ENCODING 52
SWIDTH 594 0
DWIDTH 9 0
BBX 7 12 1 0
BITMAP
04
0C
1C
1C
2C
4C
4C
8C
FE
0C
0C
1E
ENDCHAR

STARTCHAR five
ENCODING 53
SWIDTH 594 0
DWIDTH 9 0
BBX 7 12 1 0
BITMAP
3E
3C
60
40
78
4C
06
06
46
C6
8C
78
ENDCHAR

STARTCHAR six
ENCODING 54
SWIDTH 594 0
DWIDTH 9 0
BBX 7 12 1 0
BITMAP
3C
66
C2
C0
D8
EC
C6
C6
C6
C6
6C
38
ENDCHAR

STARTCHAR seven
ENCODING 55
SWIDTH 594 0
DWIDTH 9 0
BBX 7 12 1 0
BITMAP
7E
FE
86
04
0C
0C
18
18
18
30
30
30
ENDCHAR

STARTCHAR eight
ENCODING 56
SWIDTH 594 0
DWIDTH 9 0
BBX 7 12 1 0
BITMAP
7C
C6
C6
C6
6C
38
6C
C6
C6
C6
C6
7C
ENDCHAR

STARTCHAR nine
ENCODING 57
SWIDTH 594 0
DWIDTH 9 0
BBX 7 12 1 0
BITMAP
38
6C
C6
C6
C6
C6
6E
36
06
86
CC
78
ENDCHAR

STARTCHAR colon
ENCODING 58
SWIDTH 323 0
DWIDTH 5 0
BBX 2 8 2 0
BITMAP
C0
C0
00
00
00
00
C0
C0
ENDCHAR

STARTCHAR semicolon
ENCODING 59
SWIDTH 323 0
DWIDTH 5 0
BBX 3 10 1 -2
BITMAP
60
60
00
00
00
00
60
60
40
80
ENDCHAR

STARTCHAR less
ENCODING 60
SWIDTH 667 0
DWIDTH 10 0
BBX 8 7 1 1
BITMAP
03
0E
38
E0
38
0E
03
ENDCHAR

STARTCHAR equal
ENCODING 61
SWIDTH 667 0
DWIDTH 10 0
BBX 8 3 1 3
BITMAP
FF
00
FF
ENDCHAR

STARTCHAR greater
ENCODING 62
SWIDTH 667 0
DWIDTH 10 0
BBX 8 7 1 1
BITMAP
C0
70
1C
07
1C
70
C0
ENDCHAR

STARTCHAR question
ENCODING 63
SWIDTH 500 0
DWIDTH 8 0
BBX 6 12 1 0
BITMAP
78
DC
8C
0C
18
30
30
20
00
00
30
30
ENDCHAR

STARTCHAR at
ENCODING 64
SWIDTH 927 0
DWIDTH 14 0
BBX 12 15 1 -3
BITMAP
0700
18C0
2020
46A0
4D90
8D90
8D90
9990
9B10
9B20
4DC0
4010
2020
18C0
0700
ENDCHAR

STARTCHAR A
ENCODING 65
SWIDTH 854 0
DWIDTH 13 0
BBX 12 12 1 0
BITMAP
0600
0600
0F00
0B00
0980
1180
10C0
3FC0
20C0
4060
4060
E0F0
ENDCHAR

STARTCHAR B
ENCODING 66
SWIDTH 792 0
DWIDTH 12 0
BBX 11 12 1 0
BITMAP
FF00
6180
60C0
60C0
6180
7F80
60C0
6060
6060
6060
60C0
FF80
ENDCHAR

STARTCHAR C
ENCODING 67
SWIDTH 750 0
DWIDTH 11 0
BBX 10 12 1 0
BITMAP
0F80
30C0
6040
6040
C000
C000
C000
C000
6040
6040
3080
0F00
ENDCHAR

STARTCHAR D
ENCODING 68
SWIDTH 823 0
DWIDTH 12 0
BBX 11 12 1 0
BITMAP
FE00
6180
60C0
60C0
6060
6060
6060
6060
60C0
60C0
6180
FE00
ENDCHAR

STARTCHAR E
ENCODING 69
SWIDTH 750 0
DWIDTH 11 0
BBX 9 12 1 0
BITMAP
FF80
6180
6080
6480
6400
7C00
6400
6400
6080
6080
6180
FF80
ENDCHAR

STARTCHAR F
ENCODING 70
SWIDTH 698 0
DWIDTH 10 0
BBX 8 12 1 0
BITMAP
FF
63
61
65
64
7C
64
64
60
60
60
F0
ENDCHAR

STARTCHAR G
ENCODING 71
SWIDTH 854 0
DWIDTH 13 0
BBX 11 12 1 0
BITMAP
0F80
30C0
6040
6040
C000
C000
C1E0
C0C0
60C0
60C0
3180
0F00
ENDCHAR

STARTCHAR H
ENCODING 72
SWIDTH 865 0
DWIDTH 13 0
BBX 11 12 1 0
BITMAP
F1E0
60C0
60C0
60C0
60C0
7FC0
60C0
60C0
60C0
60C0
60C0
F1E0
ENDCHAR

STARTCHAR I
ENCODING 73
SWIDTH 448 0
DWIDTH 6 0
BBX 4 12 1 0
BITMAP
F0
60
60
60
60
60
60
60
60
60
60
F0
ENDCHAR

STARTCHAR J
ENCODING 74
SWIDTH 635 0
DWIDTH 10 0
BBX 8 12 1 0
BITMAP
0F
06
06
06
06
06
06
06
46
C6
8E
7C
ENDCHAR

STARTCHAR K
ENCODING 75
SWIDTH 854 0
DWIDTH 13 0
BBX 11 12 1 0
BITMAP
F1C0
6080
6100
6200
6600
6E00
7300
6300
6180
6180
60C0
F1E0
ENDCHAR

STARTCHAR L
ENCODING 76
SWIDTH 708 0
DWIDTH 11 0
BBX 9 12 1 0
BITMAP
F000
6000
6000
6000
6000
6000
6000
6000
6080
6080
6180
FF80
ENDCHAR

STARTCHAR M
ENCODING 77
SWIDTH 1052 0
DWIDTH 16 0
BBX 14 12 1 0
BITMAP
F83C
7838
5858
5858
4C58
4C98
4C98
4C98
4718
4718
4618
E23C
ENDCHAR

STARTCHAR N
ENCODING 78
SWIDTH 833 0
DWIDTH 12 0
BBX 11 12 1 0
BITMAP
E0E0
6040
7040
5840
5840
4C40
4640
4340
4340
41C0
40C0
E040
ENDCHAR

STARTCHAR O
ENCODING 79
SWIDTH 823 0
DWIDTH 12 0
BBX 11 12 1 0
BITMAP
0E00
3180
60C0
60C0
C060
C060
C060
C060
60C0
60C0
3180
0E00
ENDCHAR

STARTCHAR P
ENCODING 80
SWIDTH 729 0
DWIDTH 11 0
BBX 10 12 1 0
BITMAP
FF00
6180
60C0
60C0
60C0
6180
7F00
6000
6000
6000
6000
F000
ENDCHAR

STARTCHAR Q
ENCODING 81
SWIDTH 823 0
DWIDTH 12 0
BBX 11 14 1 -2
BITMAP
0E00
3180
60C0
60C0
C060
C060
C060
CC60
72C0
72C0
3380
0E00
0380
00E0
ENDCHAR

STARTCHAR R
ENCODING 82
SWIDTH 802 0
DWIDTH 12 0
BBX 10 12 1 0
BITMAP
FF00
6180
60C0
60C0
60C0
6180
7F00
6300
6180
6180
6180
F0C0
ENDCHAR

STARTCHAR S
ENCODING 83
SWIDTH 646 0
DWIDTH 10 0
BBX 8 12 1 0
BITMAP
3E
63
C1
C1
F0
7C
1E
07
83
83
C6
7C
ENDCHAR

STARTCHAR T
ENCODING 84
SWIDTH 729 0
DWIDTH 11 0
BBX 10 12 1 0
BITMAP
FFC0
CCC0
8C40
8C40
0C00
0C00
0C00
0C00
0C00
0C00
0C00
1E00
ENDCHAR

STARTCHAR U
ENCODING 85
SWIDTH 802 0
DWIDTH 12 0
BBX 11 12 1 0
BITMAP
F0E0
6040
6040
6040
6040
6040
6040
6040
6040
6040
3080
1F00
ENDCHAR

STARTCHAR V
ENCODING 86
SWIDTH 823 0
DWIDTH 12 0
BBX 12 12 0 0
BITMAP
F070
6020
6020
3040
3040
3080
1880
1900
0F00
0E00
0600
0400
ENDCHAR

STARTCHAR W
ENCODING 87
SWIDTH 1104 0
DWIDTH 17 0
BBX 16 12 1 0
BITMAP
F3E7
61C2
60C2
30C4
31C4
3964
1A68
1A68
0E38
0E30
0C30
0420
ENDCHAR

STARTCHAR X
ENCODING 88
SWIDTH 802 0
DWIDTH 12 0
BBX 12 12 0 0
BITMAP
F1E0
60C0
3080
1900
0D00
0600
0600
0B00
1180
20C0
6060
F0F0
ENDCHAR

STARTCHAR Y
ENCODING 89
SWIDTH 792 0
DWIDTH 12 0
BBX 11 12 1 0
BITMAP
F0E0
6040
3080
3100
1900
1A00
0C00
0C00
0C00
0C00
0C00
1E00
ENDCHAR

STARTCHAR Z
ENCODING 90
SWIDTH 667 0
DWIDTH 10 0
BBX 9 12 1 0
BITMAP
FF80
C180
8300
8600
0600
0C00
1800
3000
3080
6080
C180
FF80
ENDCHAR

STARTCHAR bracketleft
ENCODING 91
SWIDTH 396 0
DWIDTH 6 0
BBX 4 15 1 -3
BITMAP
F0
C0
C0
C0
C0
C0
C0
C0
C0
C0
C0
C0
C0
C0
F0
ENDCHAR

STARTCHAR backslash
ENCODING 92
SWIDTH 552 0
DWIDTH 8 0
BBX 7 12 1 0
BITMAP
C0
40
60
20
30
10
18
08
08
0C
04
06
ENDCHAR

STARTCHAR bracketright
ENCODING 93
SWIDTH 396 0
DWIDTH 6 0
BBX 4 15 1 -3
BITMAP
F0
30
30
30
30
30
30
30
30
30
30
30
30
30
F0
ENDCHAR

STARTCHAR asciicircum
ENCODING 94
SWIDTH 583 0
DWIDTH 9 0
BBX 7 5 1 7
BITMAP
10
38
6C
6C
C6
ENDCHAR

STARTCHAR underscore
ENCODING 95
SWIDTH 500 0
DWIDTH 8 0
BBX 8 1 0 -3
BITMAP
FF
ENDCHAR

STARTCHAR quoteleft
ENCODING 96
SWIDTH 323 0
DWIDTH 5 0
BBX 3 4 1 8
BITMAP
20
40
C0
C0
ENDCHAR

STARTCHAR a
ENCODING 97
SWIDTH 615 0
DWIDTH 9 0
BBX 8 8 1 0
BITMAP
7C
C6
86
1E
76
C6
CE
77
ENDCHAR

STARTCHAR b
ENCODING 98
SWIDTH 646 0
DWIDTH 10 0
BBX 9 12 1 0
BITMAP
E000
6000
6000
6000
6E00
7300
6180
6180
6180
6180
7300
4E00
ENDCHAR

STARTCHAR c
ENCODING 99
SWIDTH 542 0
DWIDTH 8 0
BBX 7 8 1 0
BITMAP
3C
66
C2
C0
C0
C0
62
3C
ENDCHAR

STARTCHAR d
ENCODING 100
SWIDTH 646 0
DWIDTH 10 0
BBX 9 12 1 0
BITMAP
0700
0300
0300
0300
3B00
6700
C300
C300
C300
C300
6700
3B80
ENDCHAR

STARTCHAR e
ENCODING 101
SWIDTH 562 0
DWIDTH 8 0
BBX 7 8 1 0
BITMAP
3C
66
C6
FE
C0
C0
62
3C
ENDCHAR

STARTCHAR f
ENCODING 102
SWIDTH 406 0
DWIDTH 5 0
BBX 6 12 1 0
BITMAP
38
6C
64
60
F0
60
60
60
60
60
60
F0
ENDCHAR

STARTCHAR g
ENCODING 103
SWIDTH 604 0
DWIDTH 10 0
BBX 8 11 2 -3
BITMAP
7F
C6
C6
C6
7C
C0
FE
7F
C3
C2
7C
ENDCHAR

STARTCHAR h
ENCODING 104
SWIDTH 698 0
DWIDTH 10 0
BBX 9 12 1 0
BITMAP
E000
6000
6000
6000
6E00
7700
6300
6300
6300
6300
6300
F780
ENDCHAR

STARTCHAR i
ENCODING 105
SWIDTH 385 0
DWIDTH 5 0
BBX 4 12 1 0
BITMAP
60
60
00
00
E0
60
60
60
60
60
60
F0
ENDCHAR

STARTCHAR j
ENCODING 106
SWIDTH 375 0
DWIDTH 6 0
BBX 5 15 0 -3
BITMAP
18
18
00
00
38
18
18
18
18
18
18
18
98
D8
70
ENDCHAR

STARTCHAR k
ENCODING 107
SWIDTH 698 0
DWIDTH 10 0
BBX 9 12 1 0
BITMAP
E000
6000
6000
6000
6780
6300
6200
6C00
7600
6600
6300
F780
ENDCHAR

STARTCHAR l
ENCODING 108
SWIDTH 385 0
DWIDTH 5 0
BBX 4 12 1 0
BITMAP
E0
60
60
60
60
60
60
60
60
60
60
F0
ENDCHAR

STARTCHAR m
ENCODING 109
SWIDTH 1000 0
DWIDTH 15 0
BBX 14 8 1 0
BITMAP
EF70
77B8
6318
6318
6318
6318
6318
F7BC
ENDCHAR

STARTCHAR n
ENCODING 110
SWIDTH 698 0
DWIDTH 10 0
BBX 9 8 1 0
BITMAP
EE00
7700
6300
6300
6300
6300
6300
F780
ENDCHAR

STARTCHAR o
ENCODING 111
SWIDTH 615 0
DWIDTH 9 0
BBX 8 8 1 0
BITMAP
3C
66
C3
C3
C3
C3
66
3C
ENDCHAR

STARTCHAR p
ENCODING 112
SWIDTH 646 0
DWIDTH 10 0
BBX 9 11 1 -3
BITMAP
EE00
7300
6180
6180
6180
6180
7300
6E00
6000
6000
F000
ENDCHAR

STARTCHAR q
ENCODING 113
SWIDTH 646 0
DWIDTH 10 0
BBX 9 11 1 -3
BITMAP
3900
6700
C300
C300
C300
C300
6700
3B00
0300
0300
0780
ENDCHAR

STARTCHAR r
ENCODING 114
SWIDTH 542 0
DWIDTH 8 0
BBX 7 8 1 0
BITMAP
EC
76
60
60
60
60
60
F0
ENDCHAR

STARTCHAR s
ENCODING 115
SWIDTH 510 0
DWIDTH 8 0
BBX 7 8 1 0
BITMAP
7C
C6
C0
FC
7E
06
C6
7C
ENDCHAR

STARTCHAR t
ENCODING 116
SWIDTH 427 0
DWIDTH 6 0
BBX 5 12 1 0
BITMAP
20
20
60
60
F8
60
60
60
60
60
68
30
ENDCHAR

STARTCHAR u
ENCODING 117
SWIDTH 698 0
DWIDTH 10 0
BBX 9 8 1 0
BITMAP
E700
6300
6300
6300
6300
6300
7700
3B80
ENDCHAR

STARTCHAR v
ENCODING 118
SWIDTH 635 0
DWIDTH 10 0
BBX 9 8 1 0
BITMAP
F380
6100
6200
3200
3400
3C00
1800
1800
ENDCHAR

STARTCHAR w
ENCODING 119
SWIDTH 906 0
DWIDTH 14 0
BBX 13 8 1 0
BITMAP
F7B8
6310
6310
37A0
35A0
3DC0
18C0
18C0
ENDCHAR

STARTCHAR x
ENCODING 120
SWIDTH 646 0
DWIDTH 10 0
BBX 9 8 1 0
BITMAP
F780
6300
3200
1C00
1C00
2600
6300
F780
ENDCHAR

STARTCHAR y
ENCODING 121
SWIDTH 635 0
DWIDTH 10 0
BBX 9 11 1 -3
BITMAP
F780
6300
6200
3200
3400
3400
1C00
1800
9800
D000
6000
ENDCHAR

STARTCHAR z
ENCODING 122
SWIDTH 521 0
DWIDTH 8 0
BBX 7 8 1 0
BITMAP
7E
CC
98
18
30
32
66
FC
ENDCHAR

STARTCHAR braceleft
ENCODING 123
SWIDTH 396 0
DWIDTH 6 0
BBX 4 15 1 -3
BITMAP
30
60
60
60
60
60
40
80
40
60
60
60
60
60
30
ENDCHAR

STARTCHAR bar
ENCODING 124
SWIDTH 542 0
DWIDTH 8 0
BBX 2 12 3 0
BITMAP
C0
C0
C0
C0
C0
C0
C0
C0
C0
C0
C0
C0
ENDCHAR

STARTCHAR braceright
ENCODING 125
SWIDTH 396 0
DWIDTH 6 0
BBX 4 15 1 -3
BITMAP
C0
60
60
60
60
60
20
10
20
60
60
60
60
60
C0
ENDCHAR

STARTCHAR asciitilde
ENCODING 126
SWIDTH 667 0
DWIDTH 10 0
BBX 8 2 1 4
BITMAP
7D
BE
ENDCHAR

STARTCHAR space
ENCODING 160
SWIDTH 250 0
DWIDTH 5 0
BBX 0 0 0 0
BITMAP
ENDCHAR

STARTCHAR afii10023
ENCODING 161
SWIDTH 719 0
DWIDTH 11 0
BBX 9 15 1 0
BITMAP
3300
3300
0000
FF80
6180
6080
6480
6400
7C00
6400
6400
6080
6080
6180
FF80
ENDCHAR

STARTCHAR afii10051
ENCODING 162
SWIDTH 927 0
DWIDTH 14 0
BBX 13 12 0 0
BITMAP
FFE0
CC60
8C20
8C20
0C00
0DE0
0F30
0E18
0C18
0C18
0C30
1F60
ENDCHAR

STARTCHAR afii10052
ENCODING 163
SWIDTH 687 0
DWIDTH 10 0
BBX 8 16 1 0
BITMAP
06
0C
08
00
FF
63
61
61
60
60
60
60
60
60
60
F0
ENDCHAR

STARTCHAR afii10053
ENCODING 164
SWIDTH 750 0
DWIDTH 11 0
BBX 10 12 1 0
BITMAP
0F80
30C0
6040
6040
C000
FC00
C000
C000
6040
6040
3080
0F00
ENDCHAR

STARTCHAR afii10054
ENCODING 165
SWIDTH 646 0
DWIDTH 10 0
BBX 8 12 1 0
BITMAP
3E
63
C1
C1
F0
7C
1E
07
83
83
C6
7C
ENDCHAR

STARTCHAR afii10055
ENCODING 166
SWIDTH 448 0
DWIDTH 6 0
BBX 4 12 1 0
BITMAP
F0
60
60
60
60
60
60
60
60
60
60
F0
ENDCHAR

STARTCHAR afii10056
ENCODING 167
SWIDTH 448 0
DWIDTH 6 0
BBX 6 15 0 0
BITMAP
CC
CC
00
78
30
30
30
30
30
30
30
30
30
30
78
ENDCHAR

STARTCHAR afii10057
ENCODING 168
SWIDTH 635 0
DWIDTH 10 0
BBX 8 12 1 0
BITMAP
0F
06
06
06
06
06
06
06
46
C6
8E
7C
ENDCHAR

STARTCHAR afii10058
ENCODING 169
SWIDTH 1164 0
DWIDTH 17 0
BBX 16 12 0 0
BITMAP
1FE0
08C0
08C0
08C0
08C0
08FC
08C6
10C3
10C3
D0C3
D0C6
61FC
ENDCHAR

STARTCHAR afii10059
ENCODING 170
SWIDTH 1171 0
DWIDTH 18 0
BBX 16 12 1 0
BITMAP
F1E0
60C0
60C0
60C0
60C0
7FFC
60C6
60C3
60C3
60C3
60C6
F1FC
ENDCHAR

STARTCHAR afii10060
ENCODING 171
SWIDTH 946 0
DWIDTH 14 0
BBX 13 12 0 0
BITMAP
FFE0
CC60
8C20
8C20
0C00
0DE0
0E70
0C30
0C30
0C30
0C30
1F78
ENDCHAR

STARTCHAR afii10061
ENCODING 172
SWIDTH 831 0
DWIDTH 12 0
BBX 11 16 1 0
BITMAP
0300
0600
0400
0000
F8C0
61E0
6140
6200
6200
6C00
7600
6300
6300
6180
60C0
F8E0
ENDCHAR

STARTCHAR hyphen
ENCODING 173
SWIDTH 323 0
DWIDTH 5 0
BBX 3 2 1 3
BITMAP
E0
E0
ENDCHAR

STARTCHAR afii10062
ENCODING 174
SWIDTH 748 0
DWIDTH 11 0
BBX 11 16 0 0
BITMAP
1100
1100
0E00
0000
F1E0
60C0
6080
3080
3100
1900
1A00
0E00
0C00
CC00
C800
7000
ENDCHAR

STARTCHAR afii10145
ENCODING 175
SWIDTH 865 0
DWIDTH 13 0
BBX 11 15 1 -3
BITMAP
F9E0
60C0
60C0
60C0
60C0
60C0
60C0
60C0
60C0
60C0
60C0
FFE0
0600
0600
0600
ENDCHAR

STARTCHAR afii10017
ENCODING 176
SWIDTH 854 0
DWIDTH 13 0
BBX 12 12 1 0
BITMAP
0600
0600
0F00
0B00
0980
1180
10C0
3FC0
20C0
4060
4060
E0F0
ENDCHAR

STARTCHAR afii10018
ENCODING 177
SWIDTH 792 0
DWIDTH 12 0
BBX 10 12 1 0
BITMAP
FFC0
60C0
6040
6040
6000
7F00
6180
60C0
60C0
60C0
6180
FF00
ENDCHAR

STARTCHAR afii10019
ENCODING 178
SWIDTH 792 0
DWIDTH 12 0
BBX 11 12 1 0
BITMAP
FF00
6180
60C0
60C0
6180
7F80
60C0
6060
6060
6060
60C0
FF80
ENDCHAR

STARTCHAR afii10020
ENCODING 179
SWIDTH 687 0
DWIDTH 10 0
BBX 8 12 1 0
BITMAP
FF
63
61
61
60
60
60
60
60
60
60
F8
ENDCHAR

STARTCHAR afii10021
ENCODING 180
SWIDTH 813 0
DWIDTH 12 0
BBX 11 14 0 -2
BITMAP
1FE0
08C0
08C0
10C0
10C0
10C0
10C0
20C0
20C0
20C0
40C0
FFE0
C060
8020
ENDCHAR

STARTCHAR afii10022
ENCODING 181
SWIDTH 719 0
DWIDTH 11 0
BBX 9 12 1 0
BITMAP
FF80
6180
6080
6480
6400
7C00
6400
6400
6080
6080
6180
FF80
ENDCHAR

STARTCHAR afii10024
ENCODING 182
SWIDTH 1189 0
DWIDTH 18 0
BBX 16 12 1 0
BITMAP
63C6
F18F
D18B
1188
0990
0FF0
1998
1998
318C
318C
618E
E3C7
ENDCHAR

STARTCHAR afii10025
ENCODING 183
SWIDTH 689 0
DWIDTH 9 0
BBX 8 12 0 0
BITMAP
7C
C6
83
83
06
1C
06
03
03
83
C6
7C
ENDCHAR

STARTCHAR afii10026
ENCODING 184
SWIDTH 880 0
DWIDTH 13 0
BBX 11 12 1 0
BITMAP
F1E0
60C0
61C0
61C0
62C0
62C0
64C0
68C0
68C0
70C0
60C0
F1E0
ENDCHAR

STARTCHAR afii10027
ENCODING 185
SWIDTH 880 0
DWIDTH 13 0
BBX 11 16 1 0
BITMAP
1100
1100
0E00
0000
F1E0
60C0
61C0
61C0
62C0
62C0
64C0
68C0
68C0
70C0
60C0
F1E0
ENDCHAR

STARTCHAR afii10028
ENCODING 186
SWIDTH 831 0
DWIDTH 12 0
BBX 11 12 1 0
BITMAP
F8C0
61E0
6140
6200
6200
6C00
7600
6300
6300
6180
60C0
F8E0
ENDCHAR

STARTCHAR afii10029
ENCODING 187
SWIDTH 844 0
DWIDTH 13 0
BBX 11 12 1 0
BITMAP
0FE0
04C0
04C0
04C0
08C0
08C0
08C0
10C0
10C0
D0C0
D0C0
61E0
ENDCHAR

STARTCHAR afii10030
ENCODING 188
SWIDTH 1052 0
DWIDTH 16 0
BBX 14 12 1 0
BITMAP
F83C
7838
5858
5858
4C58
4C98
4C98
4C98
4718
4718
4618
E23C
ENDCHAR

STARTCHAR afii10031
ENCODING 189
SWIDTH 865 0
DWIDTH 13 0
BBX 11 12 1 0
BITMAP
F1E0
60C0
60C0
60C0
60C0
7FC0
60C0
60C0
60C0
60C0
60C0
F1E0
ENDCHAR

STARTCHAR afii10032
ENCODING 190
SWIDTH 823 0
DWIDTH 12 0
BBX 11 12 1 0
BITMAP
0E00
3180
60C0
60C0
C060
C060
C060
C060
60C0
60C0
3180
0E00
ENDCHAR

STARTCHAR afii10033
ENCODING 191
SWIDTH 865 0
DWIDTH 13 0
BBX 11 12 1 0
BITMAP
FFE0
60C0
60C0
60C0
60C0
60C0
60C0
60C0
60C0
60C0
60C0
F1E0
ENDCHAR

STARTCHAR afii10034
ENCODING 192
SWIDTH 729 0
DWIDTH 11 0
BBX 10 12 1 0
BITMAP
FF00
6180
60C0
60C0
60C0
6180
7F00
6000
6000
6000
6000
F000
ENDCHAR

STARTCHAR afii10035
ENCODING 193
SWIDTH 750 0
DWIDTH 11 0
BBX 10 12 1 0
BITMAP
0F80
30C0
6040
6040
C000
C000
C000
C000
6040
6040
3080
0F00
ENDCHAR

STARTCHAR afii10036
ENCODING 194
SWIDTH 729 0
DWIDTH 11 0
BBX 10 12 1 0
BITMAP
FFC0
CCC0
8C40
8C40
0C00
0C00
0C00
0C00
0C00
0C00
0C00
1E00
ENDCHAR

STARTCHAR afii10037
ENCODING 195
SWIDTH 748 0
DWIDTH 11 0
BBX 11 12 0 0
BITMAP
F1E0
60C0
6080
3080
3100
1900
1A00
0E00
0C00
CC00
C800
7000
ENDCHAR

STARTCHAR afii10038
ENCODING 196
SWIDTH 934 0
DWIDTH 14 0
BBX 12 12 1 0
BITMAP
0F00
0600
3FC0
6660
C630
C630
C630
C630
6660
3FC0
0600
0F00
ENDCHAR

STARTCHAR afii10039
ENCODING 197
SWIDTH 802 0
DWIDTH 12 0
BBX 12 12 0 0
BITMAP
F1E0
60C0
3080
1900
0D00
0600
0600
0B00
1180
20C0
6060
F0F0
ENDCHAR

STARTCHAR afii10040
ENCODING 198
SWIDTH 882 0
DWIDTH 13 0
BBX 11 15 1 -3
BITMAP
F1E0
60C0
60C0
60C0
60C0
60C0
60C0
60C0
60C0
60C0
60C0
FFE0
0060
0020
0020
ENDCHAR

STARTCHAR afii10041
ENCODING 199
SWIDTH 817 0
DWIDTH 12 0
BBX 10 12 1 0
BITMAP
F3C0
6180
6180
6180
6180
3380
1D80
0180
0180
0180
0180
03C0
ENDCHAR

STARTCHAR afii10042
ENCODING 200
SWIDTH 1133 0
DWIDTH 16 0
BBX 14 12 1 0
BITMAP
F7BC
6318
6318
6318
6318
6318
6318
6318
6318
6318
6318
FFFC
ENDCHAR

STARTCHAR afii10043
ENCODING 201
SWIDTH 1153 0
DWIDTH 16 0
BBX 14 15 1 -3
BITMAP
F7BC
6318
6318
6318
6318
6318
6318
6318
6318
6318
6318
FFFC
000C
0004
0004
ENDCHAR

STARTCHAR afii10044
ENCODING 202
SWIDTH 937 0
DWIDTH 14 0
BBX 12 12 1 0
BITMAP
FE00
CC00
8C00
8C00
0C00
0C00
0FC0
0C60
0C30
0C30
0C60
1FC0
ENDCHAR

STARTCHAR afii10045
ENCODING 203
SWIDTH 1177 0
DWIDTH 17 0
BBX 15 12 1 0
BITMAP
F81E
600C
600C
600C
600C
600C
7E0C
630C
618C
618C
630C
FE1E
ENDCHAR

STARTCHAR afii10046
ENCODING 204
SWIDTH 781 0
DWIDTH 11 0
BBX 9 12 1 0
BITMAP
F000
6000
6000
6000
6000
6000
7E00
6300
6180
6180
6300
FE00
ENDCHAR

STARTCHAR afii10047
ENCODING 205
SWIDTH 750 0
DWIDTH 11 0
BBX 10 12 1 0
BITMAP
7C00
C300
8180
8180
00C0
0FC0
00C0
00C0
8180
8180
4300
3C00
ENDCHAR

STARTCHAR afii10048
ENCODING 206
SWIDTH 1219 0
DWIDTH 18 0
BBX 16 12 1 0
BITMAP
F070
618C
6306
6306
6603
6603
7E03
6603
6306
6306
618C
F070
ENDCHAR

STARTCHAR afii10049
ENCODING 207
SWIDTH 802 0
DWIDTH 12 0
BBX 10 12 1 0
BITMAP
3FC0
6180
C180
C180
C180
6180
3F80
3180
6180
6180
6180
C3C0
ENDCHAR

STARTCHAR afii10065
ENCODING 208
SWIDTH 615 0
DWIDTH 9 0
BBX 8 8 1 0
BITMAP
7C
C6
86
1E
76
C6
CE
77
ENDCHAR

STARTCHAR afii10066
ENCODING 209
SWIDTH 615 0
DWIDTH 9 0
BBX 8 12 1 0
BITMAP
03
3E
60
C0
BC
E6
C3
C3
C3
C3
66
3C
ENDCHAR

STARTCHAR afii10067
ENCODING 210
SWIDTH 646 0
DWIDTH 10 0
BBX 8 8 1 0
BITMAP
FE
63
63
7E
63
63
63
FE
ENDCHAR

STARTCHAR afii10068
ENCODING 211
SWIDTH 577 0
DWIDTH 9 0
BBX 7 8 1 0
BITMAP
FE
66
62
60
60
60
60
F0
ENDCHAR

STARTCHAR afii10069
ENCODING 212
SWIDTH 662 0
DWIDTH 10 0
BBX 9 10 1 -2
BITMAP
3F80
1B00
1300
1300
2300
2300
4300
FF80
C180
8080
ENDCHAR

STARTCHAR afii10070
ENCODING 213
SWIDTH 562 0
DWIDTH 8 0
BBX 7 8 1 0
BITMAP
3C
66
C6
FE
C0
C0
62
3C
ENDCHAR

STARTCHAR afii10072
ENCODING 214
SWIDTH 936 0
DWIDTH 14 0
BBX 14 8 0 0
BITMAP
E79C
D32C
1320
0FC0
3B70
3330
6318
E79C
ENDCHAR

STARTCHAR afii10073
ENCODING 215
SWIDTH 531 0
DWIDTH 8 0
BBX 7 8 1 0
BITMAP
7C
86
06
1C
06
86
C6
7C
ENDCHAR

STARTCHAR afii10074
ENCODING 216
SWIDTH 708 0
DWIDTH 10 0
BBX 9 8 1 0
BITMAP
F780
6300
6700
6B00
6B00
7300
6300
F780
ENDCHAR

STARTCHAR afii10075
ENCODING 217
SWIDTH 708 0
DWIDTH 10 0
BBX 9 12 1 0
BITMAP
2200
2200
1C00
0000
F780
6300
6700
6B00
6B00
7300
6300
F780
ENDCHAR

STARTCHAR afii10076
ENCODING 218
SWIDTH 677 0
DWIDTH 10 0
BBX 9 8 1 0
BITMAP
F380
6580
6400
7800
6E00
6600
6300
F380
ENDCHAR

STARTCHAR afii10077
ENCODING 219
SWIDTH 698 0
DWIDTH 10 0
BBX 10 8 0 0
BITMAP
1FC0
0980
0980
0980
0980
D180
D180
63C0
ENDCHAR

STARTCHAR afii10078
ENCODING 220
SWIDTH 854 0
DWIDTH 13 0
BBX 12 8 1 0
BITMAP
F0F0
70E0
5960
5960
5A60
4E60
4C60
E4F0
ENDCHAR

STARTCHAR afii10079
ENCODING 221
SWIDTH 713 0
DWIDTH 10 0
BBX 9 8 1 0
BITMAP
F780
6300
6300
7F00
6300
6300
6300
F780
ENDCHAR

STARTCHAR afii10080
ENCODING 222
SWIDTH 614 0
DWIDTH 9 0
BBX 8 8 1 0
BITMAP
3C
66
C3
C3
C3
C3
66
3C
ENDCHAR

STARTCHAR afii10081
ENCODING 223
SWIDTH 708 0
DWIDTH 10 0
BBX 9 8 1 0
BITMAP
FF80
6300
6300
6300
6300
6300
6300
F780
ENDCHAR

STARTCHAR afii10082
ENCODING 224
SWIDTH 656 0
DWIDTH 10 0
BBX 9 11 1 -3
BITMAP
EE00
7300
6180
6180
6180
6180
7300
6E00
6000
6000
F000
ENDCHAR

STARTCHAR afii10083
ENCODING 225
SWIDTH 542 0
DWIDTH 8 0
BBX 7 8 1 0
BITMAP
3C
66
C2
C0
C0
C0
62
3C
ENDCHAR

STARTCHAR afii10084
ENCODING 226
SWIDTH 598 0
DWIDTH 9 0
BBX 8 8 1 0
BITMAP
FF
DB
99
18
18
18
18
3C
ENDCHAR

STARTCHAR afii10085
ENCODING 227
SWIDTH 594 0
DWIDTH 10 0
BBX 9 11 1 -3
BITMAP
F780
6300
6200
3200
3400
3400
1C00
1800
9800
D000
6000
ENDCHAR

STARTCHAR afii10086
ENCODING 228
SWIDTH 823 0
DWIDTH 13 0
BBX 12 14 1 -3
BITMAP
1E00
0600
0600
76E0
EF70
C630
C630
C630
C630
EF70
76E0
0600
0600
0F00
ENDCHAR

STARTCHAR afii10087
ENCODING 229
SWIDTH 646 0
DWIDTH 10 0
BBX 9 8 1 0
BITMAP
F780
6300
3200
1C00
1C00
2600
6300
F780
ENDCHAR

STARTCHAR afii10088
ENCODING 230
SWIDTH 711 0
DWIDTH 10 0
BBX 9 11 1 -3
BITMAP
F780
6300
6300
6300
6300
6300
6300
FF80
0180
0080
0080
ENDCHAR

STARTCHAR afii10089
ENCODING 231
SWIDTH 698 0
DWIDTH 10 0
BBX 9 8 1 0
BITMAP
F780
6300
6300
7700
3B00
0300
0300
0780
ENDCHAR

STARTCHAR afii10090
ENCODING 232
SWIDTH 1047 0
DWIDTH 15 0
BBX 14 8 1 0
BITMAP
F7BC
6318
6318
6318
6318
6318
6318
FFFC
ENDCHAR

STARTCHAR afii10091
ENCODING 233
SWIDTH 1055 0
DWIDTH 15 0
BBX 14 11 1 -3
BITMAP
F7BC
6318
6318
6318
6318
6318
6318
FFFC
000C
0004
0004
ENDCHAR

STARTCHAR afii10092
ENCODING 234
SWIDTH 740 0
DWIDTH 11 0
BBX 10 8 1 0
BITMAP
FC00
D800
9800
1F80
19C0
18C0
19C0
3F80
ENDCHAR

STARTCHAR afii10093
ENCODING 235
SWIDTH 948 0
DWIDTH 14 0
BBX 13 8 1 0
BITMAP
F078
6030
6030
7E30
6730
6330
6730
FE78
ENDCHAR

STARTCHAR afii10094
ENCODING 236
SWIDTH 635 0
DWIDTH 10 0
BBX 8 8 1 0
BITMAP
F0
60
60
7E
67
63
67
FE
ENDCHAR

STARTCHAR afii10095
ENCODING 237
SWIDTH 567 0
DWIDTH 9 0
BBX 7 8 1 0
BITMAP
78
8C
06
3E
06
C6
CC
78
ENDCHAR

STARTCHAR afii10096
ENCODING 238
SWIDTH 935 0
DWIDTH 14 0
BBX 13 8 1 0
BITMAP
F1E0
6330
6618
7E18
6618
6618
6330
F1E0
ENDCHAR

STARTCHAR afii10097
ENCODING 239
SWIDTH 669 0
DWIDTH 10 0
BBX 9 8 1 0
BITMAP
3F80
7300
6300
7300
3F00
3300
6300
E780
ENDCHAR

STARTCHAR afii61352
ENCODING 240
SWIDTH 1115 0
DWIDTH 17 0
BBX 17 12 0 0
BITMAP
383800
1C5800
1C4000
164F00
165980
165980
135980
135980
134F00
11C000
D1C000
E0CF00
ENDCHAR

STARTCHAR afii10071
ENCODING 241
SWIDTH 562 0
DWIDTH 8 0
BBX 7 11 1 0
BITMAP
66
66
00
3C
66
C6
FE
C0
C0
62
3C
ENDCHAR

STARTCHAR afii10099
ENCODING 242
SWIDTH 646 0
DWIDTH 10 0
BBX 9 15 0 -3
BITMAP
7000
3000
FE00
3000
3700
3B80
3180
3180
3180
3180
3180
7980
0180
0300
0600
ENDCHAR

STARTCHAR afii10100
ENCODING 243
SWIDTH 581 0
DWIDTH 9 0
BBX 7 12 1 0
BITMAP
0C
18
10
00
FE
66
62
60
60
60
60
F0
ENDCHAR

STARTCHAR afii10101
ENCODING 244
SWIDTH 552 0
DWIDTH 8 0
BBX 7 8 1 0
BITMAP
3C
66
C6
F0
C0
C0
62
3C
ENDCHAR

STARTCHAR afii10102
ENCODING 245
SWIDTH 500 0
DWIDTH 8 0
BBX 7 8 1 0
BITMAP
7C
C6
C0
FC
7E
06
C6
7C
ENDCHAR

STARTCHAR afii10103
ENCODING 246
SWIDTH 396 0
DWIDTH 5 0
BBX 4 12 1 0
BITMAP
60
60
00
00
E0
60
60
60
60
60
60
F0
ENDCHAR

STARTCHAR afii10104
ENCODING 247
SWIDTH 396 0
DWIDTH 5 0
BBX 5 11 0 0
BITMAP
D8
D8
00
70
30
30
30
30
30
30
78
ENDCHAR

STARTCHAR afii10105
ENCODING 248
SWIDTH 375 0
DWIDTH 6 0
BBX 5 15 0 -3
BITMAP
18
18
00
00
38
18
18
18
18
18
18
18
98
D8
70
ENDCHAR

STARTCHAR afii10106
ENCODING 249
SWIDTH 967 0
DWIDTH 15 0
BBX 14 8 1 0
BITMAP
1FC0
0980
0980
09F8
098C
D18C
D18C
63F8
ENDCHAR

STARTCHAR afii10107
ENCODING 250
SWIDTH 969 0
DWIDTH 15 0
BBX 13 8 1 0
BITMAP
F780
6300
6300
7FF0
6318
6318
6318
F7F0
ENDCHAR

STARTCHAR afii10108
ENCODING 251
SWIDTH 708 0
DWIDTH 11 0
BBX 10 12 0 0
BITMAP
7000
3000
FF00
3000
3700
3980
3180
3180
3180
3180
3180
7BC0
ENDCHAR

STARTCHAR afii10109
ENCODING 252
SWIDTH 677 0
DWIDTH 10 0
BBX 9 12 1 0
BITMAP
0600
0C00
0800
0000
F380
6580
6400
7800
6E00
6600
6300
F380
ENDCHAR

STARTCHAR section
ENCODING 253
SWIDTH 531 0
DWIDTH 8 0
BBX 8 14 0 -3
BITMAP
3C
66
66
70
38
5E
C7
E3
7A
1C
0E
66
66
3C
ENDCHAR

STARTCHAR afii10110
ENCODING 254
SWIDTH 594 0
DWIDTH 10 0
BBX 9 15 1 -3
BITMAP
2200
2200
1C00
0000
F780
6300
6200
3200
3400
3400
1C00
1800
9800
D000
6000
ENDCHAR

STARTCHAR afii10193
ENCODING 255
SWIDTH 708 0
DWIDTH 11 0
BBX 9 11 1 -3
BITMAP
F780
6300
6300
6300
6300
6300
6300
FF80
1C00
0800
0800
ENDCHAR
ENDFONT
